<!DOCTYPE svg PUBLIC "-//W3C//DTD SVG 1.1//EN" "http://www.w3.org/Graphics/SVG/1.1/DTD/svg11.dtd">
<!-- Uploaded to: SVG Repo, www.svgrepo.com, Transformed by: SVG Repo Mixer Tools -->
<svg width="128px" height="128px" viewBox="-4.32 -4.32 32.64 32.64" fill="none" xmlns="http://www.w3.org/2000/svg">
<g id="SVGRepo_bgCarrier" stroke-width="0">
<path transform="translate(-4.32, -4.32), scale(2.04)" fill="#ff6900" d="M9.166.33a2.25 2.25 0 00-2.332 0l-5.25 3.182A2.25 2.25 0 00.5 5.436v5.128a2.25 2.25 0 001.084 1.924l5.25 3.182a2.25 2.25 0 002.332 0l5.25-3.182a2.25 2.25 0 001.084-1.924V5.436a2.25 2.25 0 00-1.084-1.924L9.166.33z" strokewidth="0"/>
</g>
<g id="SVGRepo_tracerCarrier" stroke-linecap="round" stroke-linejoin="round"/>
<g id="SVGRepo_iconCarrier"> <path d="M10.0495 2.52979L4.02953 6.45979C2.09953 7.71979 2.09953 10.5398 4.02953 11.7998L10.0495 15.7298C11.1295 16.4398 12.9095 16.4398 13.9895 15.7298L19.9795 11.7998C21.8995 10.5398 21.8995 7.72979 19.9795 6.46979L13.9895 2.53979C12.9095 1.81979 11.1295 1.81979 10.0495 2.52979Z" stroke="#ffffff" stroke-width="1.8" stroke-linecap="round" stroke-linejoin="round"/> <path opacity="0.4" d="M5.62914 13.0801L5.61914 17.7701C5.61914 19.0401 6.59914 20.4001 7.79914 20.8001L10.9891 21.8601C11.5391 22.0401 12.4491 22.0401 13.0091 21.8601L16.1991 20.8001C17.3991 20.4001 18.3791 19.0401 18.3791 17.7701V13.1301" stroke="#ffffff" stroke-width="1.8" stroke-linecap="round" stroke-linejoin="round"/> <path opacity="0.4" d="M21.4004 15V9" stroke="#ffffff" stroke-width="1.8" stroke-linecap="round" stroke-linejoin="round"/> </g>
</svg>